<?xml version="1.0" encoding="utf-8"?>
<!-- Generator: Adobe Illustrator 18.0.0, SVG Export Plug-In . SVG Version: 6.00 Build 0)  -->
<!DOCTYPE svg PUBLIC "-//W3C//DTD SVG 1.1//EN" "http://www.w3.org/Graphics/SVG/1.1/DTD/svg11.dtd">
<svg version="1.1" id="Слой_1" xmlns="http://www.w3.org/2000/svg" xmlns:xlink="http://www.w3.org/1999/xlink" x="0px" y="0px"
	 viewBox="123.8 0 803.8 768" enable-background="new 123.8 0 803.8 768" xml:space="preserve">
<path fill="#00BFFF"      d="
	M517.3,26.5c0,0-61.9-40.6-102.5-12.6c0,0,22.2,0,26.1,8.7c0,0-45.4-9.7-73.5,16.4l12.6,4.8c0,0-55.1,26.1-75.4,89.9
	c0,0-15.5,56.1-35.8,55.1c0,0-75.4,0-94.7-9.7c0,0-37.7-18.4-24.2,23.2c0,0,16.4,34.8,61.9,61.9c0,0,12.6,3.9-35.8,21.3
	c0,0-41.6,21.3,6.8,31.9c0,0,69.6,21.3,78.3,20.3c0,0,72.5,55.1,30,76.4c0,0-205.9,72.5-152.7,246.5c0,0,23.2,65.7,74.4,89.9
	c0,0,142.1,48.3,578.1-20.3c0,0,65.7-7.7,86-53.2c0,0,79.3-146.9,39.6-272.6c0,0-9.7-79.3-59.9-40.6c0,0-35.8,34.8-57,33.8
	c0,0,8.7-66.2-67.7-13.8l-43.5-7.5c0,0,4.8-42.5-57-10.6c0,0-38.7,10.6-41.6,2.9c0,0,100.5-162.4,29-261c0,0-36.2-84.9-107.5-90.3
	C511.2,17.4,517.8,21.9,517.3,26.5z"/>
</svg>
